<svg xmlns="http://www.w3.org/2000/svg" viewBox="0 0 200 200" fill="none">
  <defs>
    <linearGradient id="wrench-stroke" x1="0" y1="0" x2="1" y2="1">
      <stop offset="0%" stop-color="#fbbf24"/>
      <stop offset="100%" stop-color="#d97706"/>
    </linearGradient>
    <radialGradient id="bg-glow" cx="45%" cy="38%" r="52%">
      <stop offset="0%" stop-color="#f59e0b" stop-opacity="0.12"/>
      <stop offset="100%" stop-color="#f59e0b" stop-opacity="0"/>
    </radialGradient>
    <filter id="logo-glow" x="-40%" y="-40%" width="180%" height="180%">
      <feGaussianBlur in="SourceGraphic" stdDeviation="9" result="blur"/>
      <feMerge>
        <feMergeNode in="blur"/>
        <feMergeNode in="SourceGraphic"/>
      </feMerge>
    </filter>

    <!-- PCB grid in wrench local coords -->
    <pattern id="pcb-grid" x="-26" y="-44" width="13" height="13"
             patternUnits="userSpaceOnUse">
      <line x1="0" y1="13" x2="13" y2="13"
            stroke="#f59e0b" stroke-width="0.75" opacity="0.35"/>
      <line x1="13" y1="0" x2="13" y2="13"
            stroke="#f59e0b" stroke-width="0.75" opacity="0.35"/>
      <circle cx="13" cy="13" r="1.5" fill="#f59e0b" opacity="0.50"/>
    </pattern>

    <clipPath id="wrench-clip">
      <path d="M28 -44a28 28 0 0 0-31.3 37.8L-26 17.4a10 10 0 1 0 14.1 14.1
               L11.7 8.1A28 28 0 0 0 48.5 -23.2l-16.2 16.2-10.8-10.8 16.2-16.2z"/>
    </clipPath>
  </defs>

  <!-- Background -->
  <rect width="200" height="200" rx="36" fill="#111111"/>
  <rect width="200" height="200" rx="36" fill="url(#bg-glow)"/>
  <rect x="1" y="1" width="198" height="198" rx="35"
        stroke="#f59e0b" stroke-width="1.5" stroke-opacity="0.15" fill="none"/>

  <!--
    Wrench centered at (100,100), scale 2.0
    translate(100,100) scale(2.0) translate(-11.25,6.25)
  -->
  <g transform="translate(100,100) scale(2.0) translate(-11.25,6.25)">

    <!-- Amber glow halo -->
    <path d="M28 -44a28 28 0 0 0-31.3 37.8L-26 17.4a10 10 0 1 0 14.1 14.1
             L11.7 8.1A28 28 0 0 0 48.5 -23.2l-16.2 16.2-10.8-10.8 16.2-16.2z"
          fill="#f59e0b" fill-opacity="0.10" filter="url(#logo-glow)"/>

    <!-- Fill matching background (blocks glow bleed) -->
    <path d="M28 -44a28 28 0 0 0-31.3 37.8L-26 17.4a10 10 0 1 0 14.1 14.1
             L11.7 8.1A28 28 0 0 0 48.5 -23.2l-16.2 16.2-10.8-10.8 16.2-16.2z"
          fill="#111111"/>

    <!-- Circuit traces + vias (clipped to wrench) -->
    <g clip-path="url(#wrench-clip)">
      <rect x="-30" y="-50" width="85" height="90" fill="url(#pcb-grid)"/>
      <!-- Accent signal paths -->
      <line x1="-26" y1="-18" x2="10" y2="-18" stroke="#f59e0b" stroke-width="1.3" opacity="0.6"/>
      <line x1="10"  y1="-18" x2="10" y2="-5"  stroke="#f59e0b" stroke-width="1.3" opacity="0.6"/>
      <circle cx="10"  cy="-18" r="2.4" fill="#f59e0b" opacity="0.8"/>
      <circle cx="10"  cy="-5"  r="2.4" fill="#f59e0b" opacity="0.8"/>
      <line x1="-2"  y1="10"  x2="32" y2="10"  stroke="#f59e0b" stroke-width="1.3" opacity="0.6"/>
      <line x1="32"  y1="10"  x2="32" y2="-4"  stroke="#f59e0b" stroke-width="1.3" opacity="0.6"/>
      <circle cx="-2"  cy="10"  r="2.4" fill="#f59e0b" opacity="0.8"/>
      <circle cx="32"  cy="10"  r="2.4" fill="#f59e0b" opacity="0.8"/>
      <circle cx="32"  cy="-4"  r="2.4" fill="#f59e0b" opacity="0.8"/>
    </g>

    <!-- Wrench outline -->
    <path d="M28 -44a28 28 0 0 0-31.3 37.8L-26 17.4a10 10 0 1 0 14.1 14.1
             L11.7 8.1A28 28 0 0 0 48.5 -23.2l-16.2 16.2-10.8-10.8 16.2-16.2z"
          fill="none" stroke="url(#wrench-stroke)" stroke-width="1.3" stroke-opacity="0.95"/>

    <!-- Nut hole -->
    <circle cx="-18" cy="24" r="6.5" fill="#7c2d12"/>
    <circle cx="-18" cy="24" r="3.8" fill="#111111" opacity="0.9"/>
    <circle cx="-18" cy="24" r="6.5" fill="none"
            stroke="#f59e0b" stroke-width="0.8" stroke-opacity="0.30"/>
  </g>
</svg>
